<svg width="505" height="505" viewBox="0 0 505 505" fill="none" xmlns="http://www.w3.org/2000/svg">
<circle cx="252.5" cy="252.5" r="252.5" fill="black"/>
<path d="M232.213 235.575C232.213 235.575 185.75 179.478 141.223 179.478C110.248 179.478 85.0801 204.625 85.0801 235.575C85.0801 266.525 110.248 291.672 141.223 291.672C185.75 291.672 232.213 235.575 232.213 235.575ZM232.213 235.575L275.45 278.776M275.45 278.776C275.45 278.776 321.913 334.873 366.44 334.873M275.45 278.776C275.45 278.776 321.913 223.324 365.794 222.679C396.77 222.679 421.937 247.826 421.937 278.776M275.45 278.776L227.051 327.136C189.622 364.534 138.642 385.812 85.0801 385.812H83.1441L98.6318 403.221C181.878 486.399 283.193 418.051 366.44 334.873M366.44 334.873C397.415 334.873 422.582 309.726 422.582 278.776M231.568 235.575L279.967 187.215C317.395 149.817 368.376 128.539 421.937 128.539C421.937 128.539 407.74 111.13 399.996 102.748C316.75 19.5692 273.237 45.3609 189.991 128.539" stroke="#6365EF" stroke-width="17" stroke-miterlimit="10"/>
<path d="M334.886 102.195L344.02 106.522C343.472 107.545 342.753 108.467 341.891 109.247C340.906 110.139 339.755 110.828 338.503 111.275C337.251 111.722 335.923 111.918 334.595 111.852C333.268 111.786 331.967 111.458 330.766 110.889C329.565 110.32 328.487 109.52 327.595 108.535C326.703 107.55 326.015 106.397 325.568 105.146C325.121 103.894 324.924 102.566 324.99 101.239C325.048 100.078 325.305 98.9369 325.749 97.8655L334.886 102.195Z" fill="#6365EF" stroke="#6365EF"/>
<path d="M311.81 81.8168C310.911 81.1745 309.662 81.3822 309.02 82.2808C308.378 83.1794 308.585 84.4285 309.484 85.0709L310.647 83.4438L311.81 81.8168ZM310.647 83.4438L309.484 85.0709L343.074 109.082L344.237 107.455L345.4 105.828L311.81 81.8168L310.647 83.4438Z" fill="#6365EF"/>
</svg>
